<svg width="25" height="25" viewBox="0 0 25 25" fill="none" xmlns="http://www.w3.org/2000/svg">
<path d="M22.9167 17.625V20.75C22.9178 21.0401 22.8584 21.3273 22.7422 21.5931C22.626 21.8589 22.4555 22.0975 22.2417 22.2936C22.028 22.4898 21.7756 22.6391 21.5008 22.732C21.226 22.8249 20.9348 22.8595 20.6458 22.8334C17.4404 22.4851 14.3615 21.3898 11.6562 19.6354C9.1394 18.0361 7.00555 15.9023 5.40625 13.3854C3.64581 10.6679 2.55025 7.57397 2.20833 4.35419C2.1823 4.06613 2.21653 3.77581 2.30885 3.50171C2.40117 3.22761 2.54955 2.97574 2.74454 2.76212C2.93954 2.54851 3.17688 2.37784 3.44145 2.26098C3.70601 2.14412 3.99202 2.08363 4.28125 2.08335H7.40625C7.91177 2.07838 8.40186 2.25739 8.78516 2.58703C9.16847 2.91667 9.41883 3.37444 9.48958 3.87502C9.62148 4.87509 9.86609 5.85703 10.2187 6.8021C10.3589 7.17494 10.3892 7.58014 10.3061 7.96969C10.2231 8.35923 10.0301 8.7168 9.75 9.00002L8.42708 10.3229C9.90995 12.9308 12.0692 15.0901 14.6771 16.5729L16 15.25C16.2832 14.97 16.6408 14.7769 17.0303 14.6939C17.4199 14.6108 17.8251 14.6411 18.1979 14.7813C19.143 15.1339 20.1249 15.3785 21.125 15.5104C21.631 15.5818 22.0931 15.8367 22.4235 16.2266C22.7538 16.6165 22.9293 17.1142 22.9167 17.625Z" stroke="#E8EAF6" stroke-width="2" stroke-linecap="round" stroke-linejoin="round"/>
</svg>
