<svg width="27" height="26" viewBox="0 0 27 26" fill="none" xmlns="http://www.w3.org/2000/svg">
<path d="M1 1H5.54545L8.59091 16.3029C8.69482 16.829 8.97944 17.3017 9.39494 17.6381C9.81043 17.9744 10.3303 18.1531 10.8636 18.1429H21.9091C22.4424 18.1531 22.9623 17.9744 23.3778 17.6381C23.7933 17.3017 24.0779 16.829 24.1818 16.3029L26 6.71429H6.68182M16.0253 8.89418V15.709M12.4899 12.3016H19.5606M11.2273 23.8571C11.2273 24.4883 10.7185 25 10.0909 25C9.46331 25 8.95455 24.4883 8.95455 23.8571C8.95455 23.226 9.46331 22.7143 10.0909 22.7143C10.7185 22.7143 11.2273 23.226 11.2273 23.8571ZM23.7273 23.8571C23.7273 24.4883 23.2185 25 22.5909 25C21.9633 25 21.4545 24.4883 21.4545 23.8571C21.4545 23.226 21.9633 22.7143 22.5909 22.7143C23.2185 22.7143 23.7273 23.226 23.7273 23.8571Z" stroke="black" stroke-width="2" stroke-linecap="round" stroke-linejoin="round"/>
</svg>
