<svg width="25" height="25" viewBox="0 0 25 25" fill="none" xmlns="http://www.w3.org/2000/svg">
<g clip-path="url(#clip0)">
<path d="M9.37499 22.9167C9.95029 22.9167 10.4167 22.4503 10.4167 21.875C10.4167 21.2997 9.95029 20.8333 9.37499 20.8333C8.7997 20.8333 8.33333 21.2997 8.33333 21.875C8.33333 22.4503 8.7997 22.9167 9.37499 22.9167Z" stroke="#1A237E" stroke-width="2" stroke-linecap="round" stroke-linejoin="round"/>
<path d="M20.8333 22.9167C21.4086 22.9167 21.875 22.4503 21.875 21.875C21.875 21.2997 21.4086 20.8333 20.8333 20.8333C20.258 20.8333 19.7917 21.2997 19.7917 21.875C19.7917 22.4503 20.258 22.9167 20.8333 22.9167Z" stroke="#1A237E" stroke-width="2" stroke-linecap="round" stroke-linejoin="round"/>
<path d="M1.25 1.04166H5.41667L8.20833 14.9896C8.30359 15.4692 8.56449 15.8999 8.94536 16.2066C9.32623 16.5132 9.80281 16.676 10.2917 16.6667H20.4167C20.9055 16.676 21.3821 16.5132 21.763 16.2066C22.1438 15.8999 22.4047 15.4692 22.5 14.9896L24.1667 6.24999H6.45833" stroke="#1A237E" stroke-width="2" stroke-linecap="round" stroke-linejoin="round"/>
</g>
<defs>
<clipPath id="clip0">
<rect width="25" height="25" fill="white"/>
</clipPath>
</defs>
</svg>
