<svg width="39" height="40" viewBox="0 0 39 40" fill="none" xmlns="http://www.w3.org/2000/svg">
<path d="M27.0356 3.33337H11.1323C6.74074 3.33337 3.18066 7.06433 3.18066 11.6667V28.3334C3.18066 32.9357 6.74074 36.6667 11.1323 36.6667H27.0356C31.4272 36.6667 34.9873 32.9357 34.9873 28.3334V11.6667C34.9873 7.06433 31.4272 3.33337 27.0356 3.33337Z" stroke="#E8EAF6" stroke-width="2" stroke-linecap="round" stroke-linejoin="round"/>
<path d="M25.4453 18.95C25.6416 20.3371 25.4155 21.7537 24.7992 22.9984C24.183 24.243 23.2079 25.2524 22.0128 25.8828C20.8176 26.5132 19.4632 26.7327 18.1422 26.5099C16.8211 26.2871 15.6008 25.6335 14.6546 24.642C13.7085 23.6504 13.0848 22.3715 12.8722 20.987C12.6597 19.6026 12.8691 18.1832 13.4706 16.9306C14.0722 15.6781 15.0353 14.6562 16.2229 14.0104C17.4106 13.3646 18.7623 13.1277 20.0859 13.3333C21.4359 13.5432 22.6858 14.2025 23.6509 15.2139C24.616 16.2253 25.2451 17.5351 25.4453 18.95Z" stroke="#E8EAF6" stroke-width="2" stroke-linecap="round" stroke-linejoin="round"/>
<path d="M27.8308 10.8334H27.8475" stroke="#E8EAF6" stroke-width="2" stroke-linecap="round" stroke-linejoin="round"/>
</svg>
