<svg width="39" height="40" viewBox="0 0 39 40" fill="none" xmlns="http://www.w3.org/2000/svg">
<path d="M33.397 16.6666C33.397 28.3333 19.084 38.3333 19.084 38.3333C19.084 38.3333 4.771 28.3333 4.771 16.6666C4.771 12.6884 6.27897 8.87307 8.96317 6.06002C11.6474 3.24698 15.2879 1.66663 19.084 1.66663C22.88 1.66663 26.5206 3.24698 29.2048 6.06002C31.889 8.87307 33.397 12.6884 33.397 16.6666Z" stroke="#E8EAF6" stroke-width="2" stroke-linecap="round" stroke-linejoin="round"/>
<path d="M19.084 21.6666C21.7189 21.6666 23.855 19.4281 23.855 16.6666C23.855 13.9052 21.7189 11.6666 19.084 11.6666C16.449 11.6666 14.313 13.9052 14.313 16.6666C14.313 19.4281 16.449 21.6666 19.084 21.6666Z" stroke="#E8EAF6" stroke-width="2" stroke-linecap="round" stroke-linejoin="round"/>
</svg>
