<svg width="39" height="40" viewBox="0 0 39 40" fill="none" xmlns="http://www.w3.org/2000/svg">
<path d="M36.5776 5.00004C35.0547 6.12583 33.3685 6.98688 31.584 7.55004C30.6262 6.39589 29.3533 5.57786 27.9374 5.20658C26.5215 4.8353 25.031 4.9287 23.6674 5.47412C22.3039 6.01955 21.133 6.9907 20.3133 8.25623C19.4935 9.52176 19.0644 11.0206 19.084 12.55V14.2167C16.2892 14.2926 13.5198 13.6431 11.0226 12.3258C8.52535 11.0085 6.37773 9.06443 4.77099 6.6667C4.77099 6.6667 -1.59033 21.6667 12.7226 28.3334C9.4474 30.6633 5.54573 31.8316 1.59033 31.6667C15.9033 40 33.3969 31.6667 33.3969 12.5C33.3955 12.0358 33.3529 11.5727 33.2697 11.1167C34.8928 9.43919 36.0382 7.32122 36.5776 5.00004V5.00004Z" stroke="#E8EAF6" stroke-width="2" stroke-linecap="round" stroke-linejoin="round"/>
</svg>
